<svg viewBox="0 0 10 11" xmlns="http://www.w3.org/2000/svg" focusable="false" aria-hidden="true" class="icon">
    <path d="M0 6.07693C0 5.54564 0.430769 5.11539 0.961539 5.11539H1.34615C1.87744 5.11539 2.30769 5.54616 2.30769 6.07693V9.53846C2.30769 10.0692 1.87692 10.5 1.34615 10.5H0.961539C0.706523 10.5 0.461952 10.3987 0.281628 10.2184C0.101305 10.0381 0 9.79348 0 9.53846V6.07693Z" />
    <path d="M3.46155 3.76922C3.46155 3.23793 3.89232 2.80768 4.42309 2.80768H4.8077C5.33898 2.80768 5.76924 3.23845 5.76924 3.76922V9.53845C5.76924 10.0692 5.33847 10.5 4.8077 10.5H4.42309C4.16807 10.5 3.9235 10.3987 3.74318 10.2184C3.56285 10.038 3.46155 9.79346 3.46155 9.53845V3.76922Z" />
    <path d="M7.88463 0.5C7.35386 0.5 6.9231 0.930769 6.9231 1.46154V9.53846C6.9231 10.0692 7.35386 10.5 7.88463 10.5H8.26925C8.80002 10.5 9.23079 10.0692 9.23079 9.53846V1.46154C9.23079 0.930256 8.80002 0.5 8.26925 0.5H7.88463Z" />
</svg>