<svg viewBox="0 0 10 11" xmlns="http://www.w3.org/2000/svg" focusable="false" aria-hidden="true" class="icon">
    <path d="M5 5.5C4.3125 5.5 3.72396 5.25521 3.23438 4.76562C2.74479 4.27604 2.5 3.6875 2.5 3C2.5 2.3125 2.74479 1.72396 3.23438 1.23438C3.72396 0.744792 4.3125 0.5 5 0.5C5.6875 0.5 6.27604 0.744792 6.76562 1.23438C7.25521 1.72396 7.5 2.3125 7.5 3C7.5 3.6875 7.25521 4.27604 6.76562 4.76562C6.27604 5.25521 5.6875 5.5 5 5.5ZM0 10.5V8.75C0 8.39583 0.0911458 8.07031 0.273438 7.77344C0.455729 7.47656 0.697917 7.25 1 7.09375C1.64583 6.77083 2.30208 6.52865 2.96875 6.36719C3.63542 6.20573 4.3125 6.125 5 6.125C5.6875 6.125 6.36458 6.20573 7.03125 6.36719C7.69792 6.52865 8.35417 6.77083 9 7.09375C9.30208 7.25 9.54427 7.47656 9.72656 7.77344C9.90885 8.07031 10 8.39583 10 8.75V10.5H0Z" />
</svg>