<svg viewBox="0 0 16 12" xmlns="http://www.w3.org/2000/svg" focusable="false" aria-hidden="true" class="icon">
    <path d="M0.5 12V4H1.83333V5.33333H3.16667V0H4.5V1.33333H5.83333V0H7.16667V1.33333H8.5V0H9.83333V1.33333H11.1667V0H12.5V5.33333H13.8333V4H15.1667V12H9.16667V10C9.16667 9.63333 9.03611 9.31944 8.775 9.05833C8.51389 8.79722 8.2 8.66667 7.83333 8.66667C7.46667 8.66667 7.15278 8.79722 6.89167 9.05833C6.63056 9.31944 6.5 9.63333 6.5 10V12H0.5ZM5.83333 6H7.16667V4H5.83333V6ZM8.5 6H9.83333V4H8.5V6Z" />
</svg>