<svg viewBox="0 0 10 11" xmlns="http://www.w3.org/2000/svg" focusable="false" aria-hidden="true" class="icon">
    <path d="M6.65 7.85L7.35 7.15L5.5 5.3V3H4.5V5.7L6.65 7.85ZM5 10.5C4.30833 10.5 3.65833 10.3687 3.05 10.1062C2.44167 9.84375 1.9125 9.4875 1.4625 9.0375C1.0125 8.5875 0.65625 8.05833 0.39375 7.45C0.13125 6.84167 0 6.19167 0 5.5C0 4.80833 0.13125 4.15833 0.39375 3.55C0.65625 2.94167 1.0125 2.4125 1.4625 1.9625C1.9125 1.5125 2.44167 1.15625 3.05 0.89375C3.65833 0.63125 4.30833 0.5 5 0.5C5.69167 0.5 6.34167 0.63125 6.95 0.89375C7.55833 1.15625 8.0875 1.5125 8.5375 1.9625C8.9875 2.4125 9.34375 2.94167 9.60625 3.55C9.86875 4.15833 10 4.80833 10 5.5C10 6.19167 9.86875 6.84167 9.60625 7.45C9.34375 8.05833 8.9875 8.5875 8.5375 9.0375C8.0875 9.4875 7.55833 9.84375 6.95 10.1062C6.34167 10.3687 5.69167 10.5 5 10.5Z" />
</svg>